<?xml version="1.0" standalone="no"?>
<!DOCTYPE svg PUBLIC "-//W3C//DTD SVG 20010904//EN"
 "http://www.w3.org/TR/2001/REC-SVG-20010904/DTD/svg10.dtd">
<svg version="1.0" xmlns="http://www.w3.org/2000/svg"
 width="375.000000pt" height="155.000000pt" viewBox="0 0 375.000000 155.000000"
 preserveAspectRatio="xMidYMid meet">

<g transform="translate(0.000000,155.000000) scale(0.100000,-0.100000)"
fill="#000000" stroke="none">
<path d="M460 1200 c-267 -47 -451 -297 -412 -562 29 -197 170 -357 366 -413
78 -23 218 -17 299 13 79 29 149 81 384 290 l202 180 -141 123 c-78 68 -185
162 -237 207 -112 98 -185 138 -288 158 -81 15 -104 16 -173 4z m200 -165
c146 -51 239 -197 228 -356 -7 -89 -42 -161 -111 -226 -74 -70 -146 -96 -253
-91 -100 5 -172 37 -234 104 -185 201 -90 517 177 584 48 12 135 5 193 -15z"/>
<path d="M2008 900 c-102 -29 -153 -129 -127 -250 24 -112 130 -169 233 -126
34 14 76 59 76 82 0 18 -43 30 -49 13 -2 -7 -14 -23 -27 -36 -25 -25 -89 -32
-125 -13 -32 18 -52 70 -53 136 0 77 25 123 77 143 34 13 42 12 73 -2 19 -9
40 -28 46 -42 13 -29 17 -30 44 -11 19 14 19 15 -2 42 -41 56 -105 81 -166 64z"/>
<path d="M2766 895 c-56 -19 -81 -40 -101 -82 -51 -107 -16 -241 76 -288 42
-22 117 -19 163 8 49 28 64 50 47 70 -10 13 -15 12 -38 -9 -77 -71 -190 -37
-209 64 l-6 32 136 0 136 0 -1 38 c0 52 -29 121 -60 145 -37 27 -99 37 -143
22z m93 -50 c28 -14 36 -25 51 -77 l9 -28 -110 0 c-60 0 -109 2 -109 5 0 25
35 78 62 95 39 24 59 25 97 5z"/>
<path d="M3129 897 c-66 -17 -101 -74 -80 -130 13 -35 48 -56 128 -78 74 -21
103 -42 103 -74 0 -65 -122 -81 -193 -25 -24 19 -25 19 -41 1 -16 -18 -16 -20
9 -39 40 -31 91 -45 152 -40 85 7 142 64 128 127 -10 45 -40 69 -118 92 -91
27 -117 43 -117 73 0 51 71 70 145 37 36 -16 51 -18 61 -10 20 17 18 23 -18
44 -41 24 -113 34 -159 22z"/>
<path d="M1555 881 c-22 -10 -49 -26 -60 -34 -20 -16 -20 -16 0 -30 17 -13 22
-13 46 3 39 28 109 43 142 31 27 -10 52 -54 44 -75 -3 -7 -33 -17 -68 -25
-122 -25 -189 -76 -189 -146 0 -38 16 -62 52 -81 46 -24 109 -13 201 34 4 2 7
-6 7 -17 0 -17 6 -21 31 -21 30 0 31 2 25 31 -3 17 -6 90 -6 161 l0 130 -29
29 c-26 26 -36 29 -93 29 -40 0 -77 -7 -103 -19z m175 -216 c0 -53 -1 -55 -43
-80 -47 -27 -124 -34 -145 -13 -19 19 -14 73 7 92 21 19 123 55 159 55 20 1
22 -3 22 -54z"/>
<path d="M2339 877 c-102 -67 -106 -268 -7 -339 37 -26 116 -35 158 -18 29 12
90 72 90 89 0 5 -10 11 -21 14 -16 4 -30 -4 -54 -29 -26 -28 -40 -34 -72 -34
-78 0 -118 58 -111 163 4 75 28 112 80 127 46 13 79 1 109 -39 19 -26 25 -28
45 -19 23 11 23 12 6 41 -26 46 -68 67 -133 67 -42 0 -65 -6 -90 -23z"/>
<path d="M3458 883 c-54 -34 -64 -104 -20 -145 15 -15 54 -34 87 -43 98 -28
115 -40 115 -80 0 -25 -6 -37 -22 -46 -36 -19 -101 -15 -148 10 -40 20 -44 21
-59 6 -15 -15 -14 -18 9 -35 74 -58 220 -51 264 11 9 13 16 41 16 62 0 56 -37
89 -125 112 -108 27 -141 80 -73 116 29 15 95 5 129 -20 l28 -21 11 20 c6 11
8 25 4 31 -23 38 -167 52 -216 22z"/>
</g>
</svg>
